<mxfile host="app.diagrams.net" modified="2023-05-03T13:57:10.459Z" agent="Mozilla/5.0 (Windows NT 10.0; Win64; x64) AppleWebKit/537.36 (KHTML, like Gecko) Chrome/112.0.0.0 Safari/537.36" etag="HsBChxWw3aUaQBqgLD5f" version="21.2.6" type="device">
  <diagram name="Page-1" id="13e1069c-82ec-6db2-03f1-153e76fe0fe0">
    <mxGraphModel dx="1434" dy="707" grid="1" gridSize="10" guides="1" tooltips="1" connect="1" arrows="1" fold="1" page="1" pageScale="1" pageWidth="1100" pageHeight="850" background="none" math="0" shadow="0">
      <root>
        <mxCell id="0" />
        <mxCell id="1" parent="0" />
        <mxCell id="7baba1c4bc27f4b0-2" value="페이지" style="shape=umlLifeline;perimeter=lifelinePerimeter;whiteSpace=wrap;html=1;container=1;collapsible=0;recursiveResize=0;outlineConnect=0;rounded=1;shadow=0;comic=0;labelBackgroundColor=none;strokeWidth=1;fontFamily=Verdana;fontSize=12;align=center;" parent="1" vertex="1">
          <mxGeometry x="314" y="109" width="100" height="1531" as="geometry" />
        </mxCell>
        <mxCell id="fj5dnLexoJdEt0vvxZNv-27" value="2. 백엔드 API 서버 통신 요청" style="html=1;verticalAlign=bottom;endArrow=block;labelBackgroundColor=none;fontFamily=Helvetica;fontSize=12;edgeStyle=elbowEdgeStyle;elbow=vertical;align=left;fontStyle=1" parent="7baba1c4bc27f4b0-2" edge="1">
          <mxGeometry x="-1" relative="1" as="geometry">
            <mxPoint x="50" y="120" as="sourcePoint" />
            <mxPoint x="270.5" y="120" as="targetPoint" />
            <mxPoint as="offset" />
          </mxGeometry>
        </mxCell>
        <mxCell id="fj5dnLexoJdEt0vvxZNv-35" value="&lt;font&gt;10. 플랜 상세 정보 컴포넌트 노출 및&lt;br&gt;백엔드 API 서버 통신 요청&lt;/font&gt;" style="html=1;verticalAlign=bottom;endArrow=block;labelBackgroundColor=none;fontFamily=Helvetica;fontSize=12;edgeStyle=elbowEdgeStyle;elbow=vertical;align=left;fontStyle=1" parent="7baba1c4bc27f4b0-2" edge="1">
          <mxGeometry x="-0.997" relative="1" as="geometry">
            <mxPoint x="50" y="365.33000000000004" as="sourcePoint" />
            <mxPoint x="270.5" y="365.33000000000004" as="targetPoint" />
            <mxPoint as="offset" />
          </mxGeometry>
        </mxCell>
        <mxCell id="fj5dnLexoJdEt0vvxZNv-41" value="14-1. 플랜 상세 정보 화면 처리" style="endArrow=classic;html=1;rounded=0;dashed=1;align=right;fontSize=12;fontStyle=1" parent="7baba1c4bc27f4b0-2" edge="1">
          <mxGeometry x="-1" y="-10" width="50" height="50" relative="1" as="geometry">
            <mxPoint x="50" y="471" as="sourcePoint" />
            <mxPoint x="-170" y="471" as="targetPoint" />
            <Array as="points">
              <mxPoint x="50" y="471" />
              <mxPoint x="20" y="471" />
            </Array>
            <mxPoint as="offset" />
          </mxGeometry>
        </mxCell>
        <mxCell id="7baba1c4bc27f4b0-3" value="스토어 / Axios" style="shape=umlLifeline;perimeter=lifelinePerimeter;whiteSpace=wrap;html=1;container=1;collapsible=0;recursiveResize=0;outlineConnect=0;rounded=1;shadow=0;comic=0;labelBackgroundColor=none;strokeWidth=1;fontFamily=Verdana;fontSize=12;align=center;movable=1;resizable=1;rotatable=1;deletable=1;editable=1;locked=0;connectable=1;" parent="1" vertex="1">
          <mxGeometry x="534" y="109" width="100" height="1531" as="geometry" />
        </mxCell>
        <mxCell id="7baba1c4bc27f4b0-4" value="KAKAO_API" style="shape=umlLifeline;perimeter=lifelinePerimeter;whiteSpace=wrap;html=1;container=1;collapsible=0;recursiveResize=0;outlineConnect=0;rounded=1;shadow=0;comic=0;labelBackgroundColor=none;strokeWidth=1;fontFamily=Verdana;fontSize=12;align=center;" parent="1" vertex="1">
          <mxGeometry x="909" y="109" width="100" height="1531" as="geometry" />
        </mxCell>
        <mxCell id="7baba1c4bc27f4b0-8" value="유저" style="shape=umlLifeline;perimeter=lifelinePerimeter;whiteSpace=wrap;html=1;container=1;collapsible=0;recursiveResize=0;outlineConnect=0;rounded=1;shadow=0;comic=0;labelBackgroundColor=none;strokeWidth=1;fontFamily=Verdana;fontSize=12;align=center;" parent="1" vertex="1">
          <mxGeometry x="94" y="109" width="100" height="1531" as="geometry" />
        </mxCell>
        <mxCell id="7baba1c4bc27f4b0-11" value="1. 플랜 목록 페이지 접근" style="html=1;verticalAlign=bottom;endArrow=block;labelBackgroundColor=none;fontFamily=Helvetica;fontSize=12;edgeStyle=elbowEdgeStyle;elbow=vertical;align=left;fontStyle=1" parent="1" edge="1">
          <mxGeometry x="-1" relative="1" as="geometry">
            <mxPoint x="143.5" y="210" as="sourcePoint" />
            <mxPoint x="363.5" y="210" as="targetPoint" />
            <mxPoint as="offset" />
          </mxGeometry>
        </mxCell>
        <mxCell id="d7kwrDIypniRsh-_axAG-28" value="유저" style="rounded=1;whiteSpace=wrap;html=1;fontSize=12;" parent="1" vertex="1">
          <mxGeometry x="94" y="1640" width="100" height="40" as="geometry" />
        </mxCell>
        <mxCell id="d7kwrDIypniRsh-_axAG-29" value="페이지" style="rounded=1;whiteSpace=wrap;html=1;fontSize=12;" parent="1" vertex="1">
          <mxGeometry x="314" y="1640" width="100" height="40" as="geometry" />
        </mxCell>
        <mxCell id="d7kwrDIypniRsh-_axAG-30" value="스토어 / Axios" style="rounded=1;whiteSpace=wrap;html=1;fontSize=12;" parent="1" vertex="1">
          <mxGeometry x="534" y="1640" width="100" height="40" as="geometry" />
        </mxCell>
        <mxCell id="d7kwrDIypniRsh-_axAG-31" value="KAKAO_API" style="rounded=1;whiteSpace=wrap;html=1;fontSize=12;" parent="1" vertex="1">
          <mxGeometry x="909" y="1640" width="100" height="40" as="geometry" />
        </mxCell>
        <mxCell id="d7kwrDIypniRsh-_axAG-33" value="&lt;span style=&quot;font-size: 25px;&quot;&gt;&lt;b&gt;플랜 작성 / 수정 / 삭제 기능&lt;/b&gt;&lt;/span&gt;" style="text;html=1;strokeColor=none;fillColor=none;align=center;verticalAlign=middle;whiteSpace=wrap;rounded=0;fontSize=12;" parent="1" vertex="1">
          <mxGeometry x="154" y="40" width="792" height="30" as="geometry" />
        </mxCell>
        <mxCell id="fj5dnLexoJdEt0vvxZNv-23" value="백엔드 API" style="shape=umlLifeline;perimeter=lifelinePerimeter;whiteSpace=wrap;html=1;container=1;collapsible=0;recursiveResize=0;outlineConnect=0;rounded=1;shadow=0;comic=0;labelBackgroundColor=none;strokeWidth=1;fontFamily=Verdana;fontSize=12;align=center;" parent="1" vertex="1">
          <mxGeometry x="764" y="109" width="100" height="1531" as="geometry" />
        </mxCell>
        <mxCell id="fj5dnLexoJdEt0vvxZNv-26" value="백엔드 API" style="rounded=1;whiteSpace=wrap;html=1;fontSize=12;" parent="1" vertex="1">
          <mxGeometry x="764" y="1640" width="100" height="40" as="geometry" />
        </mxCell>
        <mxCell id="fj5dnLexoJdEt0vvxZNv-28" value="3. [GET] /api/v1/plans" style="html=1;verticalAlign=bottom;endArrow=block;labelBackgroundColor=none;fontFamily=Helvetica;fontSize=12;edgeStyle=elbowEdgeStyle;elbow=vertical;align=left;fontStyle=1;" parent="1" edge="1">
          <mxGeometry x="-1" relative="1" as="geometry">
            <mxPoint x="583.5" y="249" as="sourcePoint" />
            <mxPoint x="814" y="249" as="targetPoint" />
            <mxPoint as="offset" />
            <Array as="points">
              <mxPoint x="814" y="249" />
            </Array>
          </mxGeometry>
        </mxCell>
        <mxCell id="fj5dnLexoJdEt0vvxZNv-31" value="4. 사용자 작성 플랜 목록 데이터 전달" style="endArrow=classic;html=1;rounded=0;dashed=1;align=right;fontSize=12;fontStyle=1" parent="1" source="fj5dnLexoJdEt0vvxZNv-23" target="7baba1c4bc27f4b0-3" edge="1">
          <mxGeometry x="-1" y="-10" width="50" height="50" relative="1" as="geometry">
            <mxPoint x="799" y="320" as="sourcePoint" />
            <mxPoint x="644" y="320" as="targetPoint" />
            <Array as="points">
              <mxPoint x="764" y="320" />
              <mxPoint x="734" y="320" />
            </Array>
            <mxPoint x="1" as="offset" />
          </mxGeometry>
        </mxCell>
        <mxCell id="fj5dnLexoJdEt0vvxZNv-32" value="5. 결과값 저장 및 컴포넌트에 전달" style="endArrow=classic;html=1;rounded=0;dashed=1;align=right;fontSize=12;fontStyle=1" parent="1" source="7baba1c4bc27f4b0-3" target="7baba1c4bc27f4b0-2" edge="1">
          <mxGeometry x="-1" y="-10" width="50" height="50" relative="1" as="geometry">
            <mxPoint x="629" y="339" as="sourcePoint" />
            <mxPoint x="474" y="339" as="targetPoint" />
            <Array as="points">
              <mxPoint x="564" y="339" />
            </Array>
            <mxPoint x="1" as="offset" />
          </mxGeometry>
        </mxCell>
        <mxCell id="fj5dnLexoJdEt0vvxZNv-34" value="7. 플랜 목록 내 단일 플랜 클릭" style="html=1;verticalAlign=bottom;endArrow=block;labelBackgroundColor=none;fontFamily=Helvetica;fontSize=12;edgeStyle=elbowEdgeStyle;elbow=vertical;align=left;fontStyle=1" parent="1" edge="1">
          <mxGeometry x="-1" relative="1" as="geometry">
            <mxPoint x="144" y="460" as="sourcePoint" />
            <mxPoint x="364.5" y="460" as="targetPoint" />
            <mxPoint as="offset" />
          </mxGeometry>
        </mxCell>
        <mxCell id="fj5dnLexoJdEt0vvxZNv-36" value="&lt;font&gt;11. [GET] /api/v1/plans/{id}&lt;/font&gt;" style="html=1;verticalAlign=bottom;endArrow=block;labelBackgroundColor=none;fontFamily=Helvetica;fontSize=12;edgeStyle=elbowEdgeStyle;elbow=vertical;align=left;fontStyle=1" parent="1" target="fj5dnLexoJdEt0vvxZNv-23" edge="1">
          <mxGeometry x="-1" relative="1" as="geometry">
            <mxPoint x="584" y="490" as="sourcePoint" />
            <mxPoint x="804" y="490" as="targetPoint" />
            <mxPoint as="offset" />
          </mxGeometry>
        </mxCell>
        <mxCell id="fj5dnLexoJdEt0vvxZNv-37" value="12. 플랜 단건 정보 데이터 전달" style="endArrow=classic;html=1;rounded=0;dashed=1;align=right;fontSize=12;fontStyle=1" parent="1" source="fj5dnLexoJdEt0vvxZNv-23" edge="1">
          <mxGeometry x="-1" y="-10" width="50" height="50" relative="1" as="geometry">
            <mxPoint x="804" y="540" as="sourcePoint" />
            <mxPoint x="584" y="540" as="targetPoint" />
            <Array as="points">
              <mxPoint x="764" y="540" />
              <mxPoint x="734" y="540" />
            </Array>
            <mxPoint as="offset" />
          </mxGeometry>
        </mxCell>
        <mxCell id="fj5dnLexoJdEt0vvxZNv-38" value="13. 결과값 저장 및 컴포넌트에 전달" style="endArrow=classic;html=1;rounded=0;dashed=1;align=right;fontSize=12;fontStyle=1" parent="1" edge="1">
          <mxGeometry x="-1" y="-10" width="50" height="50" relative="1" as="geometry">
            <mxPoint x="584" y="560" as="sourcePoint" />
            <mxPoint x="364" y="560" as="targetPoint" />
            <Array as="points">
              <mxPoint x="564" y="560" />
            </Array>
            <mxPoint x="1" as="offset" />
          </mxGeometry>
        </mxCell>
        <mxCell id="fj5dnLexoJdEt0vvxZNv-44" value="15. 플랜 내 목적지들에 대한 좌표 및 커스텀 오버레이 이미지 URL 전달" style="html=1;verticalAlign=bottom;endArrow=block;labelBackgroundColor=none;fontFamily=Helvetica;fontSize=12;edgeStyle=elbowEdgeStyle;elbow=vertical;align=left;fontStyle=1" parent="1" target="7baba1c4bc27f4b0-4" edge="1">
          <mxGeometry x="-0.9985" relative="1" as="geometry">
            <mxPoint x="364" y="610.33" as="sourcePoint" />
            <mxPoint x="584.5" y="610.33" as="targetPoint" />
            <mxPoint as="offset" />
          </mxGeometry>
        </mxCell>
        <mxCell id="fj5dnLexoJdEt0vvxZNv-48" value="16. 카카오 지도 상 목적지 좌표에 커스텀 오버레이 표시" style="endArrow=classic;html=1;rounded=0;dashed=1;align=right;fontSize=12;fontStyle=1" parent="1" edge="1">
          <mxGeometry x="-1" y="-10" width="50" height="50" relative="1" as="geometry">
            <mxPoint x="958.5" y="653" as="sourcePoint" />
            <mxPoint x="143.5" y="653" as="targetPoint" />
            <Array as="points">
              <mxPoint x="564" y="653" />
            </Array>
            <mxPoint x="1" as="offset" />
          </mxGeometry>
        </mxCell>
        <mxCell id="fj5dnLexoJdEt0vvxZNv-49" value="플랜 조회" style="shape=umlFrame;whiteSpace=wrap;html=1;pointerEvents=0;width=90;height=20;fillColor=#d5e8d4;strokeColor=#82b366;" parent="1" vertex="1">
          <mxGeometry x="74" y="170" width="930" height="220" as="geometry" />
        </mxCell>
        <mxCell id="fj5dnLexoJdEt0vvxZNv-50" value="플랜 단건 조회" style="shape=umlFrame;whiteSpace=wrap;html=1;pointerEvents=0;width=90;height=20;fillColor=#d5e8d4;strokeColor=#82b366;" parent="1" vertex="1">
          <mxGeometry x="74" y="420" width="930" height="270" as="geometry" />
        </mxCell>
        <mxCell id="fj5dnLexoJdEt0vvxZNv-57" value="20. 폼 검증, 백엔드 API 서버 통신 요청" style="html=1;verticalAlign=bottom;endArrow=block;labelBackgroundColor=none;fontFamily=Helvetica;fontSize=12;edgeStyle=elbowEdgeStyle;elbow=vertical;align=left;fontStyle=1" parent="1" edge="1">
          <mxGeometry x="-0.997" relative="1" as="geometry">
            <mxPoint x="364" y="838.4200000000001" as="sourcePoint" />
            <mxPoint x="584.5" y="838.4200000000001" as="targetPoint" />
            <mxPoint as="offset" />
          </mxGeometry>
        </mxCell>
        <mxCell id="fj5dnLexoJdEt0vvxZNv-58" value="24. 플랜 작성 및 플랜 목록 업데이트" style="endArrow=classic;html=1;rounded=0;dashed=1;align=right;fontSize=12;fontStyle=1" parent="1" edge="1">
          <mxGeometry x="-1" y="-10" width="50" height="50" relative="1" as="geometry">
            <mxPoint x="364" y="944.0899999999999" as="sourcePoint" />
            <mxPoint x="144" y="944.0899999999999" as="targetPoint" />
            <Array as="points">
              <mxPoint x="364" y="944.0899999999999" />
              <mxPoint x="334" y="944.0899999999999" />
            </Array>
            <mxPoint as="offset" />
          </mxGeometry>
        </mxCell>
        <mxCell id="fj5dnLexoJdEt0vvxZNv-59" value="17. 플랜 작성 버튼 클릭&amp;nbsp;" style="html=1;verticalAlign=bottom;endArrow=block;labelBackgroundColor=none;fontFamily=Helvetica;fontSize=12;edgeStyle=elbowEdgeStyle;elbow=vertical;align=left;fontStyle=1" parent="1" edge="1">
          <mxGeometry x="-0.9977" relative="1" as="geometry">
            <mxPoint x="144" y="764.0899999999999" as="sourcePoint" />
            <mxPoint x="364.5" y="764.0899999999999" as="targetPoint" />
            <mxPoint as="offset" />
          </mxGeometry>
        </mxCell>
        <mxCell id="fj5dnLexoJdEt0vvxZNv-60" value="&lt;font&gt;21. [POST] /api/v1/plans (등록)&lt;br&gt;&lt;/font&gt;" style="html=1;verticalAlign=bottom;endArrow=block;labelBackgroundColor=none;fontFamily=Helvetica;fontSize=12;edgeStyle=elbowEdgeStyle;elbow=vertical;align=left;fontStyle=1" parent="1" edge="1">
          <mxGeometry x="-1" relative="1" as="geometry">
            <mxPoint x="584" y="854.0899999999999" as="sourcePoint" />
            <mxPoint x="813.5" y="854" as="targetPoint" />
            <mxPoint as="offset" />
          </mxGeometry>
        </mxCell>
        <mxCell id="fj5dnLexoJdEt0vvxZNv-61" value="22. 플랜 등록 처리 후 업데이트" style="endArrow=classic;html=1;rounded=0;dashed=1;align=right;fontSize=12;fontStyle=1" parent="1" edge="1">
          <mxGeometry x="-1" y="-10" width="50" height="50" relative="1" as="geometry">
            <mxPoint x="813.5" y="904.0899999999999" as="sourcePoint" />
            <mxPoint x="584" y="904.0899999999999" as="targetPoint" />
            <Array as="points">
              <mxPoint x="764" y="904.0899999999999" />
              <mxPoint x="734" y="904.0899999999999" />
            </Array>
            <mxPoint as="offset" />
          </mxGeometry>
        </mxCell>
        <mxCell id="fj5dnLexoJdEt0vvxZNv-62" value="23. 업데이트된 플랜 목록 상태값 저장" style="endArrow=classic;html=1;rounded=0;dashed=1;align=right;fontSize=12;fontStyle=1" parent="1" edge="1">
          <mxGeometry x="-1" y="-10" width="50" height="50" relative="1" as="geometry">
            <mxPoint x="584" y="924.0899999999999" as="sourcePoint" />
            <mxPoint x="364" y="924.0899999999999" as="targetPoint" />
            <Array as="points">
              <mxPoint x="564" y="924.0899999999999" />
            </Array>
            <mxPoint x="1" as="offset" />
          </mxGeometry>
        </mxCell>
        <mxCell id="fj5dnLexoJdEt0vvxZNv-63" value="플랜 작성" style="shape=umlFrame;whiteSpace=wrap;html=1;pointerEvents=0;width=90;height=20;fillColor=#fff2cc;strokeColor=#d6b656;" parent="1" vertex="1">
          <mxGeometry x="74" y="716" width="930" height="254" as="geometry" />
        </mxCell>
        <mxCell id="fj5dnLexoJdEt0vvxZNv-80" value="6. 플랜 목록 화면 처리" style="endArrow=classic;html=1;rounded=0;dashed=1;align=right;fontSize=12;fontStyle=1" parent="1" edge="1">
          <mxGeometry x="-1" y="-10" width="50" height="50" relative="1" as="geometry">
            <mxPoint x="364" y="360" as="sourcePoint" />
            <mxPoint x="144" y="360" as="targetPoint" />
            <Array as="points">
              <mxPoint x="364" y="360" />
              <mxPoint x="334" y="360" />
            </Array>
            <mxPoint as="offset" />
          </mxGeometry>
        </mxCell>
        <mxCell id="7ar8mzxxY6lybMUmJXvS-1" value="18. 플랜 이름 작성 폼 노출" style="endArrow=classic;html=1;rounded=0;dashed=1;align=right;fontSize=12;fontStyle=1" parent="1" edge="1">
          <mxGeometry x="-1" y="-10" width="50" height="50" relative="1" as="geometry">
            <mxPoint x="363" y="796" as="sourcePoint" />
            <mxPoint x="143" y="796" as="targetPoint" />
            <Array as="points">
              <mxPoint x="363" y="796" />
              <mxPoint x="333" y="796" />
            </Array>
            <mxPoint as="offset" />
          </mxGeometry>
        </mxCell>
        <mxCell id="7ar8mzxxY6lybMUmJXvS-2" value="19. 플랜 이름 작성 및 등록 버튼 클릭&amp;nbsp;" style="html=1;verticalAlign=bottom;endArrow=block;labelBackgroundColor=none;fontFamily=Helvetica;fontSize=12;edgeStyle=elbowEdgeStyle;elbow=vertical;align=left;fontStyle=1" parent="1" edge="1">
          <mxGeometry x="-0.9977" relative="1" as="geometry">
            <mxPoint x="144" y="830.0899999999999" as="sourcePoint" />
            <mxPoint x="364.5" y="830.0899999999999" as="targetPoint" />
            <mxPoint as="offset" />
          </mxGeometry>
        </mxCell>
        <mxCell id="N0yfgly27lMoUbKmG3n6-1" value="26. 수정 대상 플랜 상태값 요청" style="html=1;verticalAlign=bottom;endArrow=block;labelBackgroundColor=none;fontFamily=Helvetica;fontSize=12;edgeStyle=elbowEdgeStyle;elbow=vertical;align=left;fontStyle=1" parent="1" edge="1">
          <mxGeometry x="-0.997" relative="1" as="geometry">
            <mxPoint x="363.75" y="1058.42" as="sourcePoint" />
            <mxPoint x="584.25" y="1058.42" as="targetPoint" />
            <mxPoint as="offset" />
          </mxGeometry>
        </mxCell>
        <mxCell id="N0yfgly27lMoUbKmG3n6-2" value="25. 플랜 수정 버튼 클릭" style="html=1;verticalAlign=bottom;endArrow=block;labelBackgroundColor=none;fontFamily=Helvetica;fontSize=12;edgeStyle=elbowEdgeStyle;elbow=vertical;align=left;fontStyle=1" parent="1" edge="1">
          <mxGeometry x="-0.9977" relative="1" as="geometry">
            <mxPoint x="143.75" y="1038.09" as="sourcePoint" />
            <mxPoint x="364.25" y="1038.09" as="targetPoint" />
            <mxPoint as="offset" />
          </mxGeometry>
        </mxCell>
        <mxCell id="N0yfgly27lMoUbKmG3n6-3" value="28. 플랜 이름 수정 폼 노출" style="endArrow=classic;html=1;rounded=0;dashed=1;align=right;fontSize=12;fontStyle=1" parent="1" edge="1">
          <mxGeometry x="-1" y="-10" width="50" height="50" relative="1" as="geometry">
            <mxPoint x="363" y="1108" as="sourcePoint" />
            <mxPoint x="143" y="1108" as="targetPoint" />
            <Array as="points">
              <mxPoint x="363" y="1108" />
              <mxPoint x="333" y="1108" />
            </Array>
            <mxPoint as="offset" />
          </mxGeometry>
        </mxCell>
        <mxCell id="N0yfgly27lMoUbKmG3n6-4" value="27. 플랜 상태값 컴포넌트에 전달" style="endArrow=classic;html=1;rounded=0;dashed=1;align=right;fontSize=12;fontStyle=1" parent="1" edge="1">
          <mxGeometry x="-1" y="-10" width="50" height="50" relative="1" as="geometry">
            <mxPoint x="583" y="1088" as="sourcePoint" />
            <mxPoint x="363" y="1088" as="targetPoint" />
            <Array as="points">
              <mxPoint x="563" y="1088" />
            </Array>
            <mxPoint x="1" as="offset" />
          </mxGeometry>
        </mxCell>
        <mxCell id="N0yfgly27lMoUbKmG3n6-5" value="30. 폼 검증, 백엔드 API 서버 통신 요청" style="html=1;verticalAlign=bottom;endArrow=block;labelBackgroundColor=none;fontFamily=Helvetica;fontSize=12;edgeStyle=elbowEdgeStyle;elbow=vertical;align=left;fontStyle=1" parent="1" edge="1">
          <mxGeometry x="-0.997" relative="1" as="geometry">
            <mxPoint x="364" y="1148.42" as="sourcePoint" />
            <mxPoint x="584.5" y="1148.42" as="targetPoint" />
            <mxPoint as="offset" />
          </mxGeometry>
        </mxCell>
        <mxCell id="N0yfgly27lMoUbKmG3n6-6" value="34. 플랜 수정 및 플랜 목록 업데이트" style="endArrow=classic;html=1;rounded=0;dashed=1;align=right;fontSize=12;fontStyle=1" parent="1" edge="1">
          <mxGeometry x="-1" y="-10" width="50" height="50" relative="1" as="geometry">
            <mxPoint x="364" y="1254.09" as="sourcePoint" />
            <mxPoint x="144" y="1254.09" as="targetPoint" />
            <Array as="points">
              <mxPoint x="364" y="1254.09" />
              <mxPoint x="334" y="1254.09" />
            </Array>
            <mxPoint as="offset" />
          </mxGeometry>
        </mxCell>
        <mxCell id="N0yfgly27lMoUbKmG3n6-7" value="&lt;font&gt;31. [PUT] /api/v1/plans/{id} (수정)&lt;br&gt;&lt;/font&gt;" style="html=1;verticalAlign=bottom;endArrow=block;labelBackgroundColor=none;fontFamily=Helvetica;fontSize=12;edgeStyle=elbowEdgeStyle;elbow=vertical;align=left;fontStyle=1" parent="1" edge="1">
          <mxGeometry x="-1" relative="1" as="geometry">
            <mxPoint x="584" y="1164.09" as="sourcePoint" />
            <mxPoint x="813.5" y="1164" as="targetPoint" />
            <mxPoint as="offset" />
          </mxGeometry>
        </mxCell>
        <mxCell id="N0yfgly27lMoUbKmG3n6-8" value="32. 플랜 수정 처리 후 업데이트" style="endArrow=classic;html=1;rounded=0;dashed=1;align=right;fontSize=12;fontStyle=1" parent="1" edge="1">
          <mxGeometry x="-1" y="-10" width="50" height="50" relative="1" as="geometry">
            <mxPoint x="813.5" y="1214.09" as="sourcePoint" />
            <mxPoint x="584" y="1214.09" as="targetPoint" />
            <Array as="points">
              <mxPoint x="764" y="1214.09" />
              <mxPoint x="734" y="1214.09" />
            </Array>
            <mxPoint as="offset" />
          </mxGeometry>
        </mxCell>
        <mxCell id="N0yfgly27lMoUbKmG3n6-9" value="33. 업데이트된 플랜 목록 상태값 저장" style="endArrow=classic;html=1;rounded=0;dashed=1;align=right;fontSize=12;fontStyle=1" parent="1" edge="1">
          <mxGeometry x="-1" y="-10" width="50" height="50" relative="1" as="geometry">
            <mxPoint x="584" y="1234.09" as="sourcePoint" />
            <mxPoint x="364" y="1234.09" as="targetPoint" />
            <Array as="points">
              <mxPoint x="564" y="1234.09" />
            </Array>
            <mxPoint x="1" as="offset" />
          </mxGeometry>
        </mxCell>
        <mxCell id="N0yfgly27lMoUbKmG3n6-10" value="29. 플랜 이름 수정 및 등록 버튼 클릭&amp;nbsp;" style="html=1;verticalAlign=bottom;endArrow=block;labelBackgroundColor=none;fontFamily=Helvetica;fontSize=12;edgeStyle=elbowEdgeStyle;elbow=vertical;align=left;fontStyle=1" parent="1" edge="1">
          <mxGeometry x="-0.9977" relative="1" as="geometry">
            <mxPoint x="144" y="1140.09" as="sourcePoint" />
            <mxPoint x="364.5" y="1140.09" as="targetPoint" />
            <mxPoint as="offset" />
          </mxGeometry>
        </mxCell>
        <mxCell id="N0yfgly27lMoUbKmG3n6-12" value="36. 폼 검증, 백엔드 API 서버 통신 요청" style="html=1;verticalAlign=bottom;endArrow=block;labelBackgroundColor=none;fontFamily=Helvetica;fontSize=12;edgeStyle=elbowEdgeStyle;elbow=vertical;align=left;fontStyle=1" parent="1" edge="1">
          <mxGeometry x="-0.9962" relative="1" as="geometry">
            <mxPoint x="364" y="1378.42" as="sourcePoint" />
            <mxPoint x="584.5" y="1378.42" as="targetPoint" />
            <mxPoint as="offset" />
          </mxGeometry>
        </mxCell>
        <mxCell id="N0yfgly27lMoUbKmG3n6-13" value="40. 플랜 삭제 및 플랜 목록 업데이트" style="endArrow=classic;html=1;rounded=0;dashed=1;align=right;fontSize=12;fontStyle=1" parent="1" edge="1">
          <mxGeometry x="-1" y="-10" width="50" height="50" relative="1" as="geometry">
            <mxPoint x="364" y="1484.09" as="sourcePoint" />
            <mxPoint x="144" y="1484.09" as="targetPoint" />
            <Array as="points">
              <mxPoint x="364" y="1484.09" />
              <mxPoint x="334" y="1484.09" />
            </Array>
            <mxPoint as="offset" />
          </mxGeometry>
        </mxCell>
        <mxCell id="N0yfgly27lMoUbKmG3n6-14" value="&lt;font&gt;37. [DELETE] /api/v1/plans/{id} (삭제)&lt;br&gt;&lt;/font&gt;" style="html=1;verticalAlign=bottom;endArrow=block;labelBackgroundColor=none;fontFamily=Helvetica;fontSize=12;edgeStyle=elbowEdgeStyle;elbow=vertical;align=left;fontStyle=1" parent="1" edge="1">
          <mxGeometry x="-1" relative="1" as="geometry">
            <mxPoint x="584" y="1394.09" as="sourcePoint" />
            <mxPoint x="813.5" y="1394" as="targetPoint" />
            <mxPoint as="offset" />
          </mxGeometry>
        </mxCell>
        <mxCell id="N0yfgly27lMoUbKmG3n6-15" value="38. 플랜 삭제 처리 후 업데이트" style="endArrow=classic;html=1;rounded=0;dashed=1;align=right;fontSize=12;fontStyle=1" parent="1" edge="1">
          <mxGeometry x="-1" y="-10" width="50" height="50" relative="1" as="geometry">
            <mxPoint x="813.5" y="1444.09" as="sourcePoint" />
            <mxPoint x="584" y="1444.09" as="targetPoint" />
            <Array as="points">
              <mxPoint x="764" y="1444.09" />
              <mxPoint x="734" y="1444.09" />
            </Array>
            <mxPoint as="offset" />
          </mxGeometry>
        </mxCell>
        <mxCell id="N0yfgly27lMoUbKmG3n6-16" value="39. 업데이트된 플랜 목록 상태값 저장" style="endArrow=classic;html=1;rounded=0;dashed=1;align=right;fontSize=12;fontStyle=1" parent="1" edge="1">
          <mxGeometry x="-1" y="-10" width="50" height="50" relative="1" as="geometry">
            <mxPoint x="584" y="1464.09" as="sourcePoint" />
            <mxPoint x="364" y="1464.09" as="targetPoint" />
            <Array as="points">
              <mxPoint x="564" y="1464.09" />
            </Array>
            <mxPoint x="1" as="offset" />
          </mxGeometry>
        </mxCell>
        <mxCell id="N0yfgly27lMoUbKmG3n6-17" value="35. 플랜 삭제 버튼 클릭&amp;nbsp;" style="html=1;verticalAlign=bottom;endArrow=block;labelBackgroundColor=none;fontFamily=Helvetica;fontSize=12;edgeStyle=elbowEdgeStyle;elbow=vertical;align=left;fontStyle=1" parent="1" edge="1">
          <mxGeometry x="-0.9977" relative="1" as="geometry">
            <mxPoint x="144" y="1370.09" as="sourcePoint" />
            <mxPoint x="364.5" y="1370.09" as="targetPoint" />
            <mxPoint as="offset" />
          </mxGeometry>
        </mxCell>
        <mxCell id="N0yfgly27lMoUbKmG3n6-18" value="플랜 수정" style="shape=umlFrame;whiteSpace=wrap;html=1;pointerEvents=0;width=90;height=20;fillColor=#ffe6cc;strokeColor=#d79b00;" parent="1" vertex="1">
          <mxGeometry x="74" y="994" width="930" height="276" as="geometry" />
        </mxCell>
        <mxCell id="N0yfgly27lMoUbKmG3n6-19" value="플랜 삭제" style="shape=umlFrame;whiteSpace=wrap;html=1;pointerEvents=0;width=90;height=20;fillColor=#f8cecc;strokeColor=#b85450;" parent="1" vertex="1">
          <mxGeometry x="74" y="1320" width="930" height="220" as="geometry" />
        </mxCell>
      </root>
    </mxGraphModel>
  </diagram>
</mxfile>
